PathFileType	4	(X/Y/Z)	Kaydara																																																																																																																									
DataRate	CameraRate	NumFrames	NumMarkers	Units	OrigDataRate	OrigDataStartFrame	OrigNumFrames																																																																																																																					
30	30	6	41	mm	30	33	258																																																																																																																					
Frame#	Time	SALE_LFHD			SALE_RFHD			SALE_LBHD			SALE_RBHD			SALE_LFTShould			SALE_RFTShould			SALE_LRRShould			SALE_RRRShould			SALE_T10			SALE_STRN			SALE_TRUN			SALE_LSHO			SALE_LUPA			SALE_LELB			SALE_LFRM			SALE_LWRA			SALE_LWRB			SALE_LFIN			SALE_RSHO			SALE_RUPA			SALE_RELB			SALE_RFRM			SALE_RWRB			SALE_RFIN			SALE_LFWT			SALE_RFWT			SALE_LBWT			SALE_RBWT			SALE_LTHI			SALE_LKNE			SALE_RWRA			SALE_LSHN			SALE_LANK			SALE_LHEE			SALE_LTOE			SALE_RTHI			SALE_RKNE			SALE_RSHN			SALE_RANK			SALE_RHEE			SALE_RTOE		
		X1	Y1	Z1	X2	Y2	Z2	X3	Y3	Z3	X4	Y4	Z4	X5	Y5	Z5	X6	Y6	Z6	X7	Y7	Z7	X8	Y8	Z8	X9	Y9	Z9	X10	Y10	Z10	X11	Y11	Z11	X12	Y12	Z12	X13	Y13	Z13	X14	Y14	Z14	X15	Y15	Z15	X16	Y16	Z16	X17	Y17	Z17	X18	Y18	Z18	X19	Y19	Z19	X20	Y20	Z20	X21	Y21	Z21	X22	Y22	Z22	X23	Y23	Z23	X24	Y24	Z24	X25	Y25	Z25	X26	Y26	Z26	X27	Y27	Z27	X28	Y28	Z28	X29	Y29	Z29	X30	Y30	Z30	X31	Y31	Z31	X32	Y32	Z32	X33	Y33	Z33	X34	Y34	Z34	X35	Y35	Z35	X36	Y36	Z36	X37	Y37	Z37	X38	Y38	Z38	X39	Y39	Z39	X40	Y40	Z40	X41	Y41	Z41
																																																																																																																												
33	1.077	225.18637	1644.98672	-1952.43027	95.4186	1641.10443	-1952.92068	221.82045	1646.94901	-2086.43768	96.21663	1641.76666	-2079.68994	236.64103	1387.62817	-2006.81885	97.71358	1385.14893	-2004.62173	228.89488	1445.27054	-2122.9425	77.09148	1449.01825	-2109.11118	150.84724	1293.14301	-2185.54413	166.94912	1315.35263	-1958.53622	167.35615	1229.61548	-1916.76514	351.98082	1412.5766	-2078.05984	394.64275	1194.43314	-2075.96069	380.2829	1084.0522	-2091.91422	404.66751	979.72023	-2051.78894	335.23262	847.01218	-1984.27979	403.85727	836.58798	-2016.99677	396.08982	797.16064	-1966.06522	-13.31779	1413.3786	-2060.04349	-51.8178	1181.5345	-2112.88116	-70.96128	1082.1302	-2060.16205	-63.277	968.74519	-2066.80679	-69.09499	832.59743	-2013.25851	-67.37135	795.70251	-1957.0166	295.01444	977.12814	-1973.82751	15.5903	974.05663	-1983.97049	241.40318	1039.4017	-2143.55942	63.0278	1043.17436	-2149.09607	296.33238	677.44507	-2142.9538	287.98546	505.16514	-2069.91104	-14.91001	847.52098	-1967.80533	285.98	308.69791	-2072.20261	284.09674	125.06934	-2122.36053	246.71104	75.79651	-2185.60257	257.64263	86.26588	-1988.46954	9.62714	723.74313	-2145.71213	27.64142	562.86362	-2044.80927	79.705	374.74621	-2064.23599	33.7909	124.22012	-2120.28076	45.28855	78.00995	-1998.83713	79.57012	64.4371	-2189.06204
34	1.11	225.27737	1644.72839	-1952.00104	95.50939	1641.02356	-1952.37946	221.77023	1646.91742	-2085.97488	96.16259	1641.93085	-2079.18304	236.33539	1387.34879	-2006.72287	97.09719	1384.9588	-2004.76517	228.56405	1445.17105	-2122.97073	76.67369	1448.81439	-2109.09744	150.44577	1293.06366	-2185.43182	166.69476	1315.14496	-1958.73489	167.07632	1229.41238	-1916.9632	351.65169	1412.27814	-2078.11066	394.33109	1194.29245	-2076.31271	379.9593	1083.82225	-2092.18872	404.44969	979.55208	-2052.18414	335.27431	846.83823	-1984.55399	403.77098	836.38382	-2017.47894	396.12808	796.95526	-1966.55838	-13.57848	1413.32001	-2059.86862	-52.17979	1181.48117	-2112.70706	-71.2956	1082.07474	-2059.98291	-63.63855	968.69514	-2066.68045	-69.56038	832.59567	-2013.17688	-67.84486	795.65132	-1956.91986	294.55551	977.09549	-1973.39386	15.02833	973.93112	-1983.39966	240.99092	1039.4281	-2143.32108	62.62075	1043.17978	-2148.87039	296.07746	677.51411	-2142.75833	287.77582	505.15976	-2069.45236	-15.58682	847.25937	-1967.70844	285.82712	308.74069	-2072.13058	284.04032	125.15806	-2122.36008	246.68955	75.80036	-2185.59448	257.64126	86.25162	-1988.47748	9.35287	723.73642	-2145.57373	27.31734	562.85553	-2044.79065	79.49711	374.75349	-2064.20807	33.71644	124.19279	-2120.29831	45.25868	77.98766	-1998.83194	79.56316	64.42014	-2189.04877
35	1.143	225.21858	1644.43451	-1951.52969	95.43243	1640.88715	-1951.91788	221.67559	1646.93008	-2085.50934	96.12215	1642.06818	-2078.67157	236.14975	1387.17331	-2006.85776	96.64669	1384.77646	-2004.93759	228.30032	1445.06165	-2123.07037	76.55803	1448.93738	-2108.94028	150.10064	1292.99164	-2185.36972	166.53385	1314.97009	-1958.91724	166.92951	1229.2308	-1917.16293	351.42967	1412.16949	-2078.47	394.0271	1194.1391	-2076.72028	379.6907	1083.68744	-2092.55814	404.32518	979.39117	-2052.69135	335.33798	846.6851	-1984.96887	403.80558	836.22871	-2018.00034	396.33327	796.77315	-1967.15698	-13.82536	1413.3316	-2059.77814	-52.43405	1181.42609	-2112.63474	-71.55765	1082.09145	-2059.96307	-63.94903	968.67203	-2066.64154	-69.95335	832.55302	-2013.19031	-68.29622	795.62065	-1956.93665	294.28814	977.14027	-1973.53302	14.73641	973.97514	-1983.34244	240.5928	1039.43306	-2143.12225	62.1955	1043.21709	-2148.68637	295.77957	677.537	-2142.55371	287.5094	505.3162	-2069.48334	-16.12324	847.35458	-1967.63	285.64987	308.72517	-2072.06161	284.00703	125.20083	-2122.31125	246.68142	75.82345	-2185.59174	257.63735	86.26498	-1988.46802	8.92197	723.70697	-2145.51163	26.96231	562.82043	-2044.7171	79.25927	374.76166	-2064.22058	33.6699	124.19335	-2120.28427	45.23076	78.01416	-1998.8562	79.53707	64.41902	-2189.05426
36	1.177	225.20567	1644.19464	-1951.12289	95.48932	1640.64377	-1951.38123	221.55329	1647.03827	-2085.08591	96.02545	1642.21512	-2078.17902	236.01315	1387.01233	-2007.12875	96.22835	1384.83444	-2005.29266	228.06753	1444.99252	-2123.24051	76.37749	1448.93234	-2108.9447	149.68562	1292.91626	-2185.34622	166.44135	1314.87961	-1959.14566	166.82142	1229.16122	-1917.32559	351.22402	1412.00424	-2078.82645	393.7933	1193.99467	-2077.25754	379.43451	1083.56865	-2093.05206	404.21036	979.25652	-2053.27988	335.54787	846.46378	-1985.46005	403.81958	836.10657	-2018.66287	396.53893	796.63292	-1967.81555	-14.01046	1413.35449	-2059.71237	-52.54005	1181.44081	-2112.66373	-71.77556	1082.12624	-2060.05112	-64.16326	968.70781	-2066.75476	-70.31165	832.58179	-2013.33633	-68.78984	795.65292	-1957.06451	293.97602	977.18857	-1973.43216	14.435	973.95096	-1983.43903	240.21891	1039.43687	-2143.01514	61.84508	1043.20984	-2148.52585	295.48628	677.54051	-2142.37091	287.74668	506.09142	-2067.64679	-16.65335	847.36801	-1967.59476	285.53751	308.72551	-2071.96457	283.97266	125.24471	-2122.2937	246.66466	75.84431	-2185.58502	257.64578	86.25927	-1988.47336	8.63352	723.65486	-2145.34866	26.62583	562.78461	-2044.6788	79.05673	374.79042	-2064.22226	33.60047	124.15205	-2120.2948	45.21296	77.97111	-1998.86703	79.5191	64.40653	-2189.06296
37	1.21	224.91001	1643.92639	-1950.56671	95.3651	1640.45883	-1950.93231	221.48022	1647.13638	-2084.68582	95.94549	1642.25754	-2077.69928	236.74402	1386.8222	-2008.04459	97.39828	1384.81766	-2004.61182	227.88548	1444.88556	-2123.53073	76.23145	1448.90823	-2109.08325	149.37548	1292.82257	-2185.39581	166.25797	1314.78806	-1959.28818	166.73626	1229.15794	-1917.53433	351.13426	1411.85272	-2079.31274	393.57685	1193.81226	-2077.84103	379.14764	1083.41187	-2093.53806	404.09176	979.12209	-2053.9299	335.61241	846.23535	-1986.05957	403.86406	835.96024	-2019.37897	396.73454	796.44981	-1968.46039	-14.09003	1413.38364	-2059.76898	-52.62713	1181.51649	-2112.75314	-71.97525	1082.16873	-2060.16769	-64.36237	968.74931	-2066.82983	-70.69782	832.67136	-2013.44864	-69.32084	795.70969	-1957.15042	293.71685	977.23862	-1973.3371	13.87334	973.98911	-1982.95731	239.84375	1039.43588	-2142.92755	61.52451	1043.2106	-2148.40744	295.15543	677.53143	-2142.24365	287.52838	506.12663	-2067.33963	-17.07605	847.49123	-1967.56012	285.4179	308.75412	-2071.91193	283.91556	125.22778	-2122.30103	246.64122	75.87991	-2185.55389	257.63971	86.28107	-1988.46832	8.28253	723.6953	-2145.37643	26.27413	562.76917	-2044.62433	78.80544	374.70455	-2064.18182	33.48622	124.11938	-2120.27222	45.15233	77.96706	-1998.8559	79.46038	64.40334	-2189.05807
38	1.243	224.98032	1643.76221	-1950.18387	95.26673	1640.19196	-1950.54352	221.44033	1647.2612	-2084.15512	95.8822	1642.3407	-2077.29614	238.27066	1387.42096	-2009.76852	96.84846	1384.72321	-2005.01373	227.78542	1444.79401	-2123.77853	76.16924	1448.89908	-2109.29138	149.1671	1292.71713	-2185.48599	166.20308	1314.78256	-1959.52087	166.65876	1229.13437	-1917.70218	351.0186	1411.64688	-2079.69162	393.32718	1193.6721	-2078.46024	378.8961	1083.26309	-2094.10721	403.93963	978.95966	-2054.65973	335.78369	846.0601	-1986.55014	403.82603	835.75043	-2020.12695	396.85753	796.2513	-1969.25278	-14.19058	1413.42499	-2059.9472	-52.73554	1181.51321	-2112.86118	-72.19326	1082.27013	-2060.33051	-64.65564	968.81538	-2066.97708	-71.09771	832.70447	-2013.50281	-69.89276	795.78827	-1957.23907	293.45947	977.22603	-1973.30124	13.81974	973.95012	-1983.22342	239.52599	1039.44611	-2142.83142	61.25049	1043.19939	-2148.24539	294.92147	677.54669	-2142.14066	287.40599	506.17054	-2067.26669	-17.53145	847.58942	-1967.51923	285.33426	308.762	-2071.86279	283.86772	125.27087	-2122.23282	246.62773	75.86197	-2185.56259	257.62115	86.24868	-1988.45352	8.06123	723.64594	-2145.16449	26.04228	562.75803	-2044.64081	78.62924	374.67766	-2064.18839	33.40679	124.07607	-2120.27466	45.11062	77.96488	-1998.8652	79.42273	64.38325	-2189.06235
